<svg height="512pt" viewBox="-33 0 512 512" width="512pt" xmlns="http://www.w3.org/2000/svg"><path d="m381.664062 512h-381.664062l21.621094-400h338.421875zm0 0" fill="#92d6f4"/><path d="m360.042969 112h-169.210938v400h190.832031zm0 0" fill="#4bbaed"/><path d="m275.832031 192h-30v-107c0-30.328125-24.671875-55-55-55s-55 24.671875-55 55v107h-30v-107c0-46.867188 38.132813-85 85-85 46.867188 0 85 38.132812 85 85zm0 0" fill="#0673a4"/><path d="m401.832031 422h-186c-24.8125 0-45-20.1875-45-45v-110c0-24.8125 20.1875-45 45-45h186c24.8125 0 45 20.1875 45 45v110c0 24.8125-20.1875 45-45 45zm0 0" fill="#fceea9"/><path d="m245.832031 85v107h30v-107c0-46.867188-38.132812-85-85-85v30c30.328125 0 55 24.671875 55 55zm0 0" fill="#054d6e"/><path d="m401.832031 222h-93v200h93c24.8125 0 45-20.1875 45-45v-110c0-24.8125-20.1875-45-45-45zm0 0" fill="#fbde55"/><path d="m170.832031 282h276v30h-276zm0 0" fill="#f90"/><path d="m308.832031 282h138v30h-138zm0 0" fill="#ff7703"/></svg>